<svg xmlns="http://www.w3.org/2000/svg" style="display:none">
<defs>
<g id="ico-stroke" fill="none" stroke="currentColor" stroke-width="2" stroke-linecap="round" stroke-linejoin="round"></g>
</defs>

<symbol id="building" viewBox="0 0 24 24" fill="none" stroke="currentColor" stroke-width="2" stroke-linecap="round" stroke-linejoin="round">
  <rect x="4" y="3" width="16" height="18" rx="1"/>
  <path d="M9 21v-4h6v4"/>
  <path d="M8 7h1M12 7h1M16 7h1M8 11h1M12 11h1M16 11h1"/>
</symbol>

<symbol id="chat" viewBox="0 0 24 24" fill="none" stroke="currentColor" stroke-width="2" stroke-linecap="round" stroke-linejoin="round">
  <path d="M21 11.5a8.38 8.38 0 0 1-8.5 8.5 8.5 8.5 0 0 1-4-1L3 20l1-5.5a8.38 8.38 0 0 1-1-4A8.5 8.5 0 0 1 11.5 2 8.38 8.38 0 0 1 21 10.5v1Z"/>
</symbol>

<symbol id="logo" viewBox="0 0 40 40" fill="none">
  <circle cx="20" cy="20" r="17" stroke="currentColor" stroke-width="1.6"/>
  <circle cx="20" cy="20" r="12" stroke="currentColor" stroke-width="1" stroke-dasharray="2 3" opacity="0.6"/>
  <path d="M13 20.5l5 5l9-11" stroke="currentColor" stroke-width="2.4" stroke-linecap="round" stroke-linejoin="round"/>
</symbol>

<symbol id="menu" viewBox="0 0 24 24" fill="none" stroke="currentColor" stroke-width="2" stroke-linecap="round" stroke-linejoin="round">
  <path d="M3 6h18M3 12h18M3 18h18"/>
</symbol>

<symbol id="x" viewBox="0 0 24 24" fill="none" stroke="currentColor" stroke-width="2" stroke-linecap="round" stroke-linejoin="round">
  <path d="M18 6 6 18M6 6l12 12"/>
</symbol>

<symbol id="shield-check" viewBox="0 0 24 24" fill="none" stroke="currentColor" stroke-width="2" stroke-linecap="round" stroke-linejoin="round">
  <path d="M12 2 4 5v6c0 5 3.5 8.5 8 11 4.5-2.5 8-6 8-11V5l-8-3Z"/>
  <path d="m9 12 2 2 4-4"/>
</symbol>

<symbol id="shield" viewBox="0 0 24 24" fill="none" stroke="currentColor" stroke-width="2" stroke-linecap="round" stroke-linejoin="round">
  <path d="M12 2 4 5v6c0 5 3.5 8.5 8 11 4.5-2.5 8-6 8-11V5l-8-3Z"/>
</symbol>

<symbol id="search" viewBox="0 0 24 24" fill="none" stroke="currentColor" stroke-width="2" stroke-linecap="round" stroke-linejoin="round">
  <circle cx="11" cy="11" r="7"/>
  <path d="m20 20-3.5-3.5"/>
</symbol>

<symbol id="map-pin" viewBox="0 0 24 24" fill="none" stroke="currentColor" stroke-width="2" stroke-linecap="round" stroke-linejoin="round">
  <path d="M12 22s7-6.2 7-12a7 7 0 1 0-14 0c0 5.8 7 12 7 12Z"/>
  <circle cx="12" cy="10" r="2.5"/>
</symbol>

<symbol id="droplet" viewBox="0 0 24 24" fill="none" stroke="currentColor" stroke-width="2" stroke-linecap="round" stroke-linejoin="round">
  <path d="M12 2s6 7 6 12a6 6 0 0 1-12 0c0-5 6-12 6-12Z"/>
</symbol>

<symbol id="star" viewBox="0 0 24 24" fill="none" stroke="currentColor" stroke-width="2" stroke-linecap="round" stroke-linejoin="round">
  <path d="m12 2 3.1 6.3 6.9 1-5 4.9 1.2 6.8L12 17.8 5.8 21l1.2-6.8-5-4.9 6.9-1L12 2Z"/>
</symbol>

<symbol id="heart" viewBox="0 0 24 24" fill="none" stroke="currentColor" stroke-width="2" stroke-linecap="round" stroke-linejoin="round">
  <path d="M12 21s-7.5-4.6-10-9.3C.5 8.4 2.3 5 5.7 5c2 0 3.4 1.1 4.3 2.4C10.9 6.1 12.3 5 14.3 5c3.4 0 5.2 3.4 3.7 6.7C19.5 16.4 12 21 12 21Z"/>
</symbol>

<symbol id="bed" viewBox="0 0 24 24" fill="none" stroke="currentColor" stroke-width="2" stroke-linecap="round" stroke-linejoin="round">
  <path d="M2 18v-6a2 2 0 0 1 2-2h16a2 2 0 0 1 2 2v6"/>
  <path d="M2 20v-2M22 20v-2M2 12V8a2 2 0 0 1 2-2h4a2 2 0 0 1 2 2v2"/>
  <path d="M14 12V9a2 2 0 0 1 2-2h2a2 2 0 0 1 2 2v3"/>
</symbol>

<symbol id="bath" viewBox="0 0 24 24" fill="none" stroke="currentColor" stroke-width="2" stroke-linecap="round" stroke-linejoin="round">
  <path d="M4 12V6a2 2 0 0 1 2-2 2 2 0 0 1 2 2"/>
  <path d="M2 12h20v2a6 6 0 0 1-6 6H8a6 6 0 0 1-6-6v-2Z"/>
  <path d="M6 20v2M18 20v2"/>
</symbol>

<symbol id="maximize" viewBox="0 0 24 24" fill="none" stroke="currentColor" stroke-width="2" stroke-linecap="round" stroke-linejoin="round">
  <path d="M8 3H5a2 2 0 0 0-2 2v3M16 3h3a2 2 0 0 1 2 2v3M8 21H5a2 2 0 0 1-2-2v-3M16 21h3a2 2 0 0 0 2-2v-3"/>
</symbol>

<symbol id="gauge" viewBox="0 0 24 24" fill="none" stroke="currentColor" stroke-width="2" stroke-linecap="round" stroke-linejoin="round">
  <path d="M12 21a9 9 0 1 0-9-9"/>
  <path d="M12 12 16 8"/>
</symbol>

<symbol id="users" viewBox="0 0 24 24" fill="none" stroke="currentColor" stroke-width="2" stroke-linecap="round" stroke-linejoin="round">
  <circle cx="9" cy="8" r="3.5"/>
  <path d="M2.5 20a6.5 6.5 0 0 1 13 0"/>
  <circle cx="17.5" cy="9" r="2.8"/>
  <path d="M15.5 13.2A5.5 5.5 0 0 1 21.5 20"/>
</symbol>

<symbol id="home" viewBox="0 0 24 24" fill="none" stroke="currentColor" stroke-width="2" stroke-linecap="round" stroke-linejoin="round">
  <path d="m3 11 9-8 9 8"/>
  <path d="M5 10v10h14V10"/>
  <path d="M9 20v-6h6v6"/>
</symbol>

<symbol id="key" viewBox="0 0 24 24" fill="none" stroke="currentColor" stroke-width="2" stroke-linecap="round" stroke-linejoin="round">
  <circle cx="8" cy="15" r="4.5"/>
  <path d="M11 12l9-9M17 6l3 3M14 9l2 2"/>
</symbol>

<symbol id="trending-up" viewBox="0 0 24 24" fill="none" stroke="currentColor" stroke-width="2" stroke-linecap="round" stroke-linejoin="round">
  <path d="m3 17 6-6 4 4 8-8"/>
  <path d="M17 5h4v4"/>
</symbol>

<symbol id="handshake" viewBox="0 0 24 24" fill="none" stroke="currentColor" stroke-width="2" stroke-linecap="round" stroke-linejoin="round">
  <path d="M2 12h4l3-3 3 3 3-3 3 3h4"/>
  <path d="M6 12v4l4 3 2-2 2 2 4-3v-4"/>
</symbol>

<symbol id="landmark" viewBox="0 0 24 24" fill="none" stroke="currentColor" stroke-width="2" stroke-linecap="round" stroke-linejoin="round">
  <path d="M3 21h18M4 21V10M20 21V10M2 10l10-6 10 6M8 21v-7M12 21v-7M16 21v-7"/>
</symbol>

<symbol id="arrow-right" viewBox="0 0 24 24" fill="none" stroke="currentColor" stroke-width="2" stroke-linecap="round" stroke-linejoin="round">
  <path d="M5 12h14M13 6l6 6-6 6"/>
</symbol>

<symbol id="arrow-left" viewBox="0 0 24 24" fill="none" stroke="currentColor" stroke-width="2" stroke-linecap="round" stroke-linejoin="round">
  <path d="M19 12H5M11 6l-6 6 6 6"/>
</symbol>

<symbol id="eye" viewBox="0 0 24 24" fill="none" stroke="currentColor" stroke-width="2" stroke-linecap="round" stroke-linejoin="round">
  <path d="M1 12s4-7 11-7 11 7 11 7-4 7-11 7-11-7-11-7Z"/>
  <circle cx="12" cy="12" r="3"/>
</symbol>

<symbol id="eye-off" viewBox="0 0 24 24" fill="none" stroke="currentColor" stroke-width="2" stroke-linecap="round" stroke-linejoin="round">
  <path d="M3 3l18 18"/>
  <path d="M10.6 5.2A11 11 0 0 1 12 5c7 0 11 7 11 7a14 14 0 0 1-3.2 3.9M6.6 6.6C3.8 8.4 2 12 2 12s4 7 11 7a10 10 0 0 0 4.2-.9"/>
  <path d="M9.9 9.9a3 3 0 0 0 4.2 4.2"/>
</symbol>

<symbol id="check" viewBox="0 0 24 24" fill="none" stroke="currentColor" stroke-width="2" stroke-linecap="round" stroke-linejoin="round">
  <path d="M20 6 9 17l-5-5"/>
</symbol>

</svg>
